<?xml version="1.0" encoding="UTF-8"?><svg id="_レイヤー_1" xmlns="http://www.w3.org/2000/svg" viewBox="0 0 289.68 85.15"><polygon points="68.27 71.42 30.97 71.42 102.28 0 49.53 0 35.79 13.73 71.31 13.73 0 85.15 54.54 85.15 68.27 71.42" style="fill:#ffe100; stroke-width:0px;"/><rect x="251.11" y="18.27" width="4.34" height="4.34" style="fill:#fff; stroke-width:0px;"/><rect x="251.08" y="26.96" width="4.37" height="14.58" style="fill:#fff; stroke-width:0px;"/><rect x="284.35" y="18.27" width="4.34" height="4.34" style="fill:#fff; stroke-width:0px;"/><rect x="284.32" y="26.96" width="4.37" height="14.58" style="fill:#fff; stroke-width:0px;"/><polygon points="262.13 41.54 266.56 41.54 266.56 30 273 30 273 25.91 266.56 25.91 266.56 22.43 279.02 22.43 279.02 18.34 262.13 18.34 262.13 41.54" style="fill:#fff; stroke-width:0px;"/><polygon points="234.4 32.35 234.4 18.27 231.17 18.27 222.44 32.35 222.44 18.27 218.51 18.27 218.51 41.53 221.74 41.53 230.47 27.45 230.47 40.84 230.48 41.53 233.7 41.53 248.12 18.27 243.13 18.27 234.4 32.35" style="fill:#fff; stroke-width:0px;"/><path d="m102.16,41.56v-3.87l12.72-14.81h-12.33v-4.46h18.87v3.87l-12.72,14.81h12.72v4.46h-19.27Z" style="fill:#fff; stroke-width:0px;"/><path d="m130.21,41.56v-23.13h17.45v4.53h-12.39v4.69h10.91v4.53h-10.91v4.86h12.56v4.53h-17.61Z" style="fill:#fff; stroke-width:0px;"/><path d="m165.97,41.92c-6.21,0-10.01-3.47-10.01-10.28v-13.22h5.09v13.09c0,3.77,1.88,5.72,4.99,5.72s4.99-1.88,4.99-5.55v-13.25h5.09v13.05c0,7.01-3.93,10.44-10.15,10.44Z" style="fill:#fff; stroke-width:0px;"/><path d="m193.73,41.4h-10.14v-4.55h10.14c1.26,0,2.28-1.02,2.28-2.28s-1.02-2.28-2.28-2.28h-3.69c-3.77,0-6.83-3.07-6.83-6.83v-.35c0-3.77,3.07-6.83,6.83-6.83h9.93v4.55h-9.93c-1.26,0-2.28,1.02-2.28,2.28v.35c0,1.26,1.02,2.28,2.28,2.28h3.69c3.77,0,6.83,3.07,6.83,6.83s-3.07,6.83-6.83,6.83Z" style="fill:#fff; stroke-width:0px;"/><path d="m106.93,57.45h4.27v3.71h-4.15v12.56h-4.83v-12.56h-2.57v-3.71h2.57v-.74c0-1.9.56-3.4,1.69-4.52,1.12-1.11,2.71-1.67,4.75-1.67.72,0,1.41.08,2.06.23.65.15,1.19.38,1.62.67l-1.27,3.5c-.56-.39-1.21-.59-1.95-.59-1.46,0-2.2.8-2.2,2.41v.71Z" style="fill:#fff; stroke-width:0px;"/><path d="m116.88,72.87c-1.39-.73-2.48-1.75-3.26-3.05-.78-1.3-1.18-2.77-1.18-4.42s.39-3.12,1.18-4.42c.78-1.3,1.87-2.31,3.26-3.05,1.39-.73,2.96-1.1,4.72-1.1s3.32.37,4.7,1.1c1.38.73,2.46,1.75,3.25,3.05.78,1.3,1.18,2.77,1.18,4.42s-.39,3.12-1.18,4.42c-.78,1.3-1.87,2.32-3.25,3.05-1.38.73-2.95,1.1-4.7,1.1s-3.33-.37-4.72-1.1Zm7.77-4.11c.79-.84,1.19-1.95,1.19-3.36s-.4-2.52-1.19-3.36c-.79-.84-1.81-1.25-3.05-1.25s-2.26.42-3.06,1.25c-.8.83-1.21,1.95-1.21,3.36s.4,2.52,1.21,3.36,1.83,1.25,3.06,1.25,2.25-.42,3.05-1.25Z" style="fill:#fff; stroke-width:0px;"/><path d="m140.95,57.45c.98-.41,2.11-.62,3.39-.62v4.46c-.54-.04-.9-.06-1.08-.06-1.38,0-2.46.39-3.25,1.16-.78.77-1.18,1.93-1.18,3.48v7.86h-4.83v-16.64h4.61v2.2c.58-.8,1.36-1.41,2.34-1.83Z" style="fill:#fff; stroke-width:0px;"/><path d="m171.19,62.55h4.58v8.79c-1.18.89-2.54,1.57-4.08,2.04-1.55.47-3.1.71-4.67.71-2.25,0-4.27-.48-6.06-1.44-1.79-.96-3.2-2.29-4.22-3.99-1.02-1.7-1.53-3.62-1.53-5.77s.51-4.07,1.53-5.77c1.02-1.7,2.44-3.03,4.25-3.99,1.81-.96,3.86-1.44,6.13-1.44,1.9,0,3.62.32,5.17.96,1.55.64,2.85,1.57,3.9,2.78l-3.22,2.97c-1.55-1.63-3.41-2.44-5.6-2.44-1.38,0-2.61.29-3.68.87-1.07.58-1.91,1.39-2.51,2.44-.6,1.05-.9,2.26-.9,3.62s.3,2.54.9,3.59c.6,1.05,1.43,1.87,2.49,2.46s2.27.88,3.64.88c1.44,0,2.74-.31,3.9-.93v-6.34Z" style="fill:#fff; stroke-width:0px;"/><path d="m180.47,52.06h5.01v17.57h10.86v4.08h-15.87v-21.66Z" style="fill:#fff; stroke-width:0px;"/><path d="m203.63,72.64c-1.8-.97-3.22-2.31-4.24-4.01-1.02-1.7-1.53-3.61-1.53-5.74s.51-4.04,1.53-5.74c1.02-1.7,2.43-3.04,4.24-4.01,1.8-.97,3.83-1.45,6.08-1.45s4.27.48,6.06,1.45c1.79.97,3.21,2.3,4.24,4.01,1.03,1.7,1.55,3.61,1.55,5.74s-.52,4.04-1.55,5.74c-1.03,1.7-2.44,3.04-4.24,4.01-1.79.97-3.82,1.45-6.06,1.45s-4.27-.48-6.08-1.45Zm9.54-3.7c1.03-.59,1.84-1.41,2.43-2.46s.88-2.25.88-3.59-.29-2.54-.88-3.59c-.59-1.05-1.4-1.87-2.43-2.46s-2.19-.88-3.46-.88-2.43.29-3.46.88-1.84,1.41-2.43,2.46c-.59,1.05-.88,2.25-.88,3.59s.29,2.54.88,3.59,1.4,1.87,2.43,2.46,2.19.88,3.46.88,2.43-.29,3.46-.88Z" style="fill:#fff; stroke-width:0px;"/><path d="m244.2,64.42c.7.92,1.05,2.05,1.05,3.39,0,1.9-.74,3.36-2.21,4.38s-3.62,1.53-6.45,1.53h-11.2v-21.66h10.58c2.64,0,4.67.51,6.08,1.52,1.41,1.01,2.12,2.38,2.12,4.12,0,1.05-.25,1.99-.76,2.81-.5.83-1.21,1.48-2.12,1.95,1.24.39,2.21,1.05,2.91,1.96Zm-13.83-8.58v5.1h4.98c1.24,0,2.18-.22,2.82-.65.64-.43.96-1.07.96-1.92s-.32-1.48-.96-1.9c-.64-.42-1.58-.63-2.82-.63h-4.98Zm8.83,13.46c.67-.43,1-1.1,1-2.01,0-1.79-1.33-2.69-3.99-2.69h-5.85v5.35h5.85c1.32,0,2.31-.22,2.99-.65Z" style="fill:#fff; stroke-width:0px;"/><path d="m263.39,69.08h-10.05l-1.92,4.64h-5.14l9.65-21.66h4.95l9.68,21.66h-5.26l-1.92-4.64Zm-1.58-3.81l-3.43-8.29-3.43,8.29h6.87Z" style="fill:#fff; stroke-width:0px;"/><path d="m272.88,52.06h5.01v17.57h10.86v4.08h-15.87v-21.66Z" style="fill:#fff; stroke-width:0px;"/></svg>